<?xml version="1.0" encoding="UTF-8"?>
<svg id="Layer_1" data-name="Layer 1" xmlns="http://www.w3.org/2000/svg" viewBox="0 0 789.61 251.81">
  <defs>
    <style>
      .cls-1 {
        fill: #2b2c2a;
        stroke-width: 0px;
      }
    </style>
  </defs>
  <path class="cls-1" d="M768.91,108.99l.9,6.8c.04.33.23.5.56.51,6.57.19,12.67,1.82,18.3,4.89.49.27.76.68.8,1.25.19,2.52.18,5.1-.03,7.73-.03.33-.19.58-.48.75-5.67,3.17-11.88,4.88-18.63,5.13-.35,0-.54.19-.59.54l-.86,6.76c-.05.37.11.6.47.71,6.22,1.85,11.59,4.94,16.12,9.27.45.43.62.96.52,1.57-.43,2.61-1.09,5.04-1.99,7.29-.15.37-.42.62-.81.73-5.86,1.8-13.29,1.44-19.09.23-.35-.07-.58.06-.71.39l-2.48,6.21c-.13.33-.05.6.26.79,5.63,3.61,10.02,8.1,13.17,13.48.21.35.23.72.08,1.09-1.1,2.63-2.45,4.95-4.05,6.98-.25.31-.58.46-.99.45-6.48-.25-12.54-1.86-18.18-4.82-.4-.21-.74-.13-1.01.23l-4.07,5.4c-.3.4-.28.78.07,1.15,4.63,4.96,7.71,10.54,9.25,16.73.09.36,0,.67-.26.94l-5.31,5.37c-.28.28-.68.38-1.06.27-6.43-1.89-11.97-5.02-16.62-9.4-.3-.28-.76-.31-1.08-.06l-5.37,4.14c-.23.18-.3.5-.17.75,3.14,5.85,4.79,11.99,4.94,18.43,0,.37-.14.67-.44.9-2.26,1.73-4.61,3.11-7.06,4.14-.32.13-.63.11-.93-.07-5.36-3.23-9.89-7.71-13.58-13.42-.21-.32-.48-.4-.83-.25l-6.46,2.79c-.37.16-.5.43-.4.82,1.67,6.39,1.63,12.81-.14,19.26-.11.38-.4.67-.77.76l-7.41,1.9c-.34.08-.69-.02-.93-.26-4.66-4.73-7.88-10.21-9.66-16.45-.13-.44-.42-.63-.87-.57l-6.75.87c-.31.04-.47.22-.48.54-.13,6.69-1.83,12.89-5.12,18.6-.2.35-.56.56-.96.56l-7.44.02c-.34,0-.61-.13-.82-.4-.6-.75-1.1-1.58-1.51-2.49-2.41-5.36-3.7-10.76-3.85-16.2,0-.37-.19-.58-.56-.62l-7.23-.9c-.37-.05-.61.11-.72.47-1.81,6.21-4.96,11.68-9.46,16.43-.23.25-.52.34-.85.29-2.35-.39-4.77-1.01-7.26-1.86-1.23-.42-1.45-1.5-1.68-2.62-1.23-5.96-1.14-11.72.27-17.27.11-.44-.04-.75-.46-.92l-5.93-2.45c-.46-.19-.82-.08-1.08.35-3.31,5.51-7.75,9.94-13.32,13.27-.59.35-1.17.36-1.76,0l-6.26-3.67c-.34-.2-.5-.49-.49-.88.13-6.61,1.72-12.82,4.76-18.62.21-.4.14-.73-.22-1l-5.59-4.2c-.33-.24-.64-.22-.93.05-4.51,4.23-9.96,7.31-16.34,9.26-.71.21-1.31.06-1.82-.47l-4.94-5.14c-.27-.28-.36-.68-.25-1.04,1.87-6.41,5.04-11.98,9.53-16.71.23-.25.24-.5.04-.76l-4.35-5.68c-.23-.31-.52-.37-.86-.19-6.2,3.26-12.42,4.84-18.65,4.74-.44,0-.77-.2-.99-.59l-3.76-6.7c-.18-.31-.17-.62.02-.93,3.55-5.72,8.04-10.23,13.49-13.53.29-.17.41-.54.28-.85l-2.65-6.2c-.17-.38-.59-.59-1-.5-5.56,1.25-13.82,1.83-19.26-.33-.31-.13-.55-.39-.64-.72l-1.92-7.36c-.09-.37,0-.68.26-.95,4.5-4.49,10.25-7.75,16.48-9.75.47-.15.67-.46.6-.95l-.92-6.75c-.08-.54-.39-.82-.94-.84-6.59-.2-12.66-1.83-18.21-4.88-.27-.14-.42-.36-.46-.66-.41-2.69-.42-5.49-.01-8.4.05-.32.21-.56.5-.71,5.7-3.07,11.85-4.73,18.45-4.96.38-.01.6-.21.65-.59l.87-6.86c.05-.4-.11-.66-.5-.77-5.56-1.65-10.65-4.46-15.26-8.41-.49-.41-.91-.87-1.28-1.38-.19-.27-.27-.6-.22-.92.45-2.62,1.1-5.02,1.96-7.19.24-.59.75-1.02,1.36-1.15,6.28-1.37,12.45-1.37,18.51,0,.4.09.68-.05.84-.43l2.65-6.26c.14-.32.06-.57-.24-.75-5.55-3.39-10.07-7.92-13.57-13.61-.22-.36-.23-.72-.02-1.09l3.85-6.77c.18-.32.45-.48.82-.47,6.67.09,12.89,1.71,18.64,4.86.36.2.66.14.9-.19l4.32-5.76c.23-.31.22-.6-.04-.88-4.55-4.97-7.68-10.51-9.38-16.61-.14-.52-.02-.97.36-1.34l5.18-5.12c.35-.35.86-.48,1.34-.35,6.11,1.74,11.62,4.89,16.52,9.44.28.25.57.27.87.04l5.12-3.92c.29-.22.38-.63.2-.96-3.09-5.53-4.73-11.69-4.93-18.48,0-.32.14-.62.4-.8,2.35-1.68,4.71-3.04,7.08-4.09.31-.14.6-.12.89.05,5.47,3.28,9.97,7.73,13.52,13.34.24.38.56.48.97.31l6.66-2.83c.37-.15.51-.43.41-.82-1.63-6.26-1.58-12.64.15-19.14.11-.43.38-.7.8-.81l7.34-1.94c.41-.11.76,0,1.05.29,4.38,4.51,7.61,10.05,9.7,16.62.12.37.37.53.76.48l6.99-.92c.36-.05.64-.36.65-.72.17-6.18,1.78-12.18,4.83-18,.25-.46.7-.77,1.21-.84,2.71-.37,5.27-.37,7.7,0,.46.07.86.35,1.09.77,3.19,5.99,4.79,12.03,4.78,18.14,0,.33.16.52.49.57l7.22,1.02c.35.05.58-.1.68-.44,1.73-5.68,4.58-10.81,8.55-15.39.39-.45.84-.85,1.33-1.18.26-.18.58-.25.89-.2,2.77.43,5.29,1.11,7.57,2.03.31.13.51.35.6.67,1.65,6.33,1.66,12.7.05,19.09-.09.36.03.61.38.76l6.78,2.89c.35.15.63.06.82-.27,3.35-5.6,7.89-10.11,13.6-13.54.33-.21.67-.21,1.02,0l6.59,3.82c.29.17.47.48.48.82.11,6.57-1.48,12.82-4.76,18.77-.2.37-.14.68.19.93l5.56,4.31c.29.23.57.21.84-.04,4.86-4.53,10.33-7.64,16.4-9.35.62-.17,1.28,0,1.73.46l4.83,4.96c.45.45.58.98.39,1.59-1.87,6.15-5.01,11.6-9.41,16.36-.27.29-.29.6-.04.92l4.12,5.41c.25.33.56.4.93.21,5.79-2.91,12.33-4.84,18.8-4.56.33.02.63.2.8.49l3.73,6.39c.19.33.2.67.03,1.01-2.81,5.55-8.49,10.73-13.52,13.85-.31.2-.4.47-.26.81l2.54,6.08c.17.42.63.66,1.08.57,6.57-1.41,12.83-1.36,18.79.13.37.09.63.32.76.68.99,2.62,1.69,5.23,2.12,7.83.05.31-.04.57-.26.78-4.74,4.57-10.21,7.77-16.42,9.62-.48.14-.69.46-.62.95h0ZM701.28,33.71c-33.89-14.03-70.86-8.18-100.02,14.57-.93.72-1.4,1.68-1.41,2.87,0,.37.12.69.36.97,3.47,3.95,7.02,7.93,10.67,11.96,1.27,1.39,2.63,1.53,4.09.4,14.62-11.28,30.87-16.9,48.76-16.87,17.92.03,34.15,5.66,48.68,16.89,1.27.99,3.1.78,4.16-.43,3.26-3.7,6.56-7.39,9.91-11.07,1.1-1.21,1.57-3.02.18-4.17-7.48-6.17-15.94-11.21-25.38-15.12h0ZM681.27,101.01l36.84-17.81c.69-.33,1.02-1.16.76-1.92-.33-.96-.88-1.86-1.66-2.69-10.95-11.64-24.09-19.23-39.41-22.76-1.14-.26-2.03-.32-2.66-.17-1.17.27-1.72,1-1.63,2.21.96,13.43,1.91,26.86,2.86,40.3.13,1.88,1.77,3.3,3.65,3.17.43-.03.86-.14,1.25-.33h0ZM651.07,97.24c.99-12.31,1.81-24.63,2.63-36.94.05-.86.03-1.77-.07-2.73-.15-1.53-1-2.13-2.53-1.81-16.36,3.46-30.37,11.54-42.04,24.25-.4.43-.64.95-.73,1.54-.12.8.3,1.59,1.03,1.95,12.25,6,24.57,11.98,36.95,17.94,1.39.67,2.59.45,3.61-.64.63-.67,1.02-1.86,1.15-3.56h0ZM571.82,87.26c-8.02,19.23-9.79,39.53-5.3,60.88.33,1.59,1.73,2.87,3.45,2.39,5.09-1.42,10.08-2.86,14.95-4.33,1.7-.51,2.72-2.24,2.35-3.97-1-4.76-1.57-9.81-1.71-15.16-.54-20.33,6.07-38.01,19.83-53.02,1.23-1.33,1.2-3.25-.08-4.56-3.51-3.55-7.14-7.19-10.89-10.92-1.06-1.06-2.79-1.06-3.85,0-.01,0-.03.03-.04.04-7.99,8.34-14.22,17.89-18.71,28.64h0ZM761.11,148.05c7.13-31.79-1.35-65.06-23.45-89-.85-.92-1.93-1.33-3.23-1.22-.33.03-.62.17-.85.41-3.67,3.81-7.33,7.49-10.99,11.06-1.14,1.11-1.98,3.02-.73,4.36,17.75,19.04,23.48,42.86,18.52,68.7-.32,1.68.68,3.33,2.32,3.82,4.6,1.38,9.41,2.78,14.43,4.21,2.17.61,3.49-.17,3.98-2.34h0ZM727.48,151.38c1.29.88,2.92.37,3.4-1.1,5.39-16.44,5.36-32.81-.07-49.12-.22-.66-.74-1.11-1.57-1.34-.51-.15-1.06-.05-1.5.25l-33.77,22.95c-1.54,1.04-1.94,3.13-.9,4.67.24.35.54.66.89.89,10.89,7.44,22.07,15.04,33.52,22.8ZM596.24,102.43c-4.89,15.81-4.93,31.62.17,47.86.46,1.46,1.84,2.46,3.29,1.48,10.67-7.19,21.72-14.7,33.13-22.55,2.37-1.63,3.14-4.17.45-6.01-11.08-7.57-21.98-14.99-32.7-22.28-.61-.41-1.27-.7-1.96-.87-.38-.09-.78.01-1.06.28-.63.59-1.07,1.29-1.32,2.09h0ZM688.47,126.04c0-13.72-11.12-24.84-24.84-24.84s-24.84,11.12-24.84,24.84,11.12,24.84,24.84,24.84,24.84-11.12,24.84-24.84ZM717.49,168.07c-11.96-5.89-24.27-11.98-36.17-17.62-1.7-.8-3.72-.07-4.52,1.63-.18.38-.29.79-.32,1.2l-2.99,40.77c-.05.7.3,1.37.91,1.73.63.37,1.28.47,1.96.32,17.11-3.89,31.01-11.96,41.71-24.2,1.44-1.65,1.25-2.93-.58-3.83h0ZM610.4,172.96c11.23,12.21,24.96,19.92,40.86,23.46,2.31.51,3.38-.41,3.21-2.77-.91-13.09-1.89-26.45-2.94-40.1-.19-2.38-2.77-3.66-4.84-2.66-12.2,5.91-24.48,11.9-36.83,17.96-1,.49-1.23,1.21-.69,2.18.35.63.68,1.33,1.23,1.93h0ZM652.82,225.25c20.68,2.19,40.11-1.67,58.3-11.56,20.41-11.09,35.49-28.03,45.26-50.8.67-1.56.42-3.45-1.35-4.05-4.82-1.66-9.69-3.33-14.61-5.02-1.9-.65-3.24-.06-4.03,1.78-7.62,17.73-19.61,30.99-35.96,39.77-17.88,9.61-40.23,12.04-59.77,5.71-23.28-7.53-39.87-22.75-49.77-45.65-.75-1.72-2.02-2.27-3.82-1.65-4.51,1.56-9.07,3.12-13.68,4.68-.73.25-1.41.64-2.05,1.16-.8.65-.98,1.52-.55,2.6,13.77,34.33,44.62,59.08,82.03,63.03h0Z"/>
  <path class="cls-1" d="M657.01,32.38l1.3,12.08c.02.19-.11.35-.3.38l-2.99.37c-.19.02-.37-.11-.39-.31h0l-1.28-12.27c-.02-.19-.19-.33-.38-.31h-.02l-4.29.66c-.19.03-.37-.1-.4-.29v-.02l-.27-2.42c-.02-.19.11-.37.31-.39h0l13.27-1.38c.19-.02.36.13.38.32v.02l.08,2.55c0,.19-.14.35-.33.36l-4.36.27c-.19.01-.34.18-.33.37h0s0,.01,0,.01Z"/>
  <path class="cls-1" d="M673.75,42.4l-5.15-.42c-.4-.03-.68.13-.85.49l-.81,1.74c-.16.35-.52.58-.91.58h-2.26c-.54.02-.69-.23-.46-.72l7.13-14.76c.11-.23.3-.34.55-.33l2.73.14c.37.02.69.28.79.64l4.19,15.56c.07.28-.03.44-.32.47-2.28.31-3.5-.5-3.67-2.43-.05-.59-.37-.91-.96-.96h0ZM669.58,38.67c-.07.15-.01.33.14.4.03.02.07.03.1.03l3.62.34c.16.02.31-.11.33-.27v-.1l-1.35-4.95c-.04-.16-.21-.25-.37-.21-.08.02-.15.08-.19.16l-2.27,4.6h-.01Z"/>
  <path class="cls-1" d="M686.89,42.89l-1.2,4.49c-.03.15-.13.2-.28.17l-3.46-.83c-.13-.03-.18-.11-.15-.24l4.32-14.61c.08-.29.39-.47.69-.39,2.18.59,4.46,1.27,6.83,2.04,4.49,1.45,3.96,7.93.19,9.62-.34.15-.49.41-.44.78l.76,6.49c.01.11-.03.14-.13.1l-2.97-1.22c-.2-.08-.32-.23-.35-.44l-.7-5.2c-.05-.4-.27-.67-.65-.8l-1.48-.49c-.51-.17-.84,0-.98.53h0ZM688.79,35.79l-.91,2.92c-.07.22.05.46.27.53h0l2.45.77c1.1.34,2.22-.16,2.52-1.11l.09-.27c.3-.95-.35-2.01-1.45-2.35h0l-2.44-.76c-.22-.07-.46.05-.53.27h0Z"/>
  <path class="cls-1" d="M646.67,40.25c0,4.43-3.6,8.03-8.03,8.03h0c-4.43,0-8.03-3.6-8.03-8.03h0c0-4.43,3.6-8.03,8.03-8.03h0c4.43,0,8.03,3.6,8.03,8.03h0ZM643.6,40.21c0-2.72-2.2-4.92-4.92-4.92s-4.92,2.2-4.92,4.92h0c0,2.72,2.2,4.92,4.92,4.92h0c2.72,0,4.92-2.2,4.92-4.92Z"/>
  <path class="cls-1" d="M706.75,44.6l5.73-2.59c.09-.04.2-.04.29,0l2.68,1.58c.15.08.2.27.12.42-.03.06-.08.1-.14.13l-8.81,4.1c-.06.03-.11.07-.14.13l-3.33,6.29c-.08.15-.26.2-.41.13l-2.7-1.38c-.15-.08-.21-.27-.13-.42h0l3.33-6.31c.03-.06.05-.14.03-.21l-1.79-9.53c-.03-.17.07-.33.24-.37.06,0,.12,0,.18.02l3.05,1.18c.1.04.17.13.19.23l1.18,6.36c.03.17.19.28.36.25.02,0,.05,0,.07-.02h0Z"/>
  <path class="cls-1" d="M620.79,50.98l2.33,3.91c.19.32.13.58-.19.78l-2.39,1.45c-.31.18-.71.09-.89-.22,0,0,0-.02-.01-.02l-7.19-12.85c-.21-.37-.13-.66.24-.86l7.42-4.02c.32-.18.7-.23,1.05-.14,2.81.7,6.19,3.89,4.74,7.14-.17.4-.09.73.26.98l5.24,3.86c.14.11.13.19-.03.26l-3.2,1.39c-.12.05-.23.04-.34-.04l-4.28-3.12c-.39-.28-.78-.29-1.18-.03-.37.25-.77.44-1.2.56-.55.16-.67.48-.38.97h0ZM617.32,45.22l1.14,1.98c.23.38.72.51,1.1.29l2.13-1.22c.85-.49,1.16-1.54.7-2.34h0l-.28-.48c-.46-.8-1.52-1.05-2.37-.56l-2.13,1.23c-.38.23-.51.72-.29,1.1Z"/>
  <path class="cls-1" d="M17.01,129.07v35.23c0,1.52-1.23,2.75-2.75,2.75H2.73c-1.5,0-2.72-1.22-2.72-2.73C0,134.25,0,103.74,0,72.79c0-1.42.9-2.65,2.37-2.81,10.95-1.19,21.48-1.82,31.57-1.87,17.65-.1,32.55,5.78,34.85,25.46,1.63,13.97-3.69,24.03-15.97,30.17-.35.17-.44.44-.28.79l16.95,38.28c.67,1.53-.02,3.31-1.54,3.98-.38.17-.8.26-1.22.26h-12.67c-.97,0-1.85-.57-2.24-1.46l-16.08-36.19c-.07-.16-.22-.26-.39-.27l-17.61-.76c-.49-.02-.73.21-.73.7h0ZM17.17,113.01c6.28.28,12.24.38,17.88.31,6.25-.09,12.53-2.55,15.16-8.44,1.29-2.88,1.64-5.79,1.06-8.72-1.43-7.25-6.06-11.23-13.88-11.92-5.22-.47-11.79-.29-19.71.54-.45.05-.67.29-.67.74v27.32c0,.09.07.16.16.17Z"/>
  <path class="cls-1" d="M176.06,111.17c-.14,11.77-.1,23.22.13,34.37.11,5.2,2.6,7.69,7.47,7.46,2.91-.14,5.86-.23,8.85-.27,1.43-.02,2.62,1.09,2.7,2.52l.51,9.28c.07,1.18-.71,2.24-1.86,2.52-7.01,1.73-13.54,2.16-19.6,1.29-6.31-.91-10.97-4.27-12.84-10.47-1.16-3.84-1.76-7.56-1.8-11.17-.13-12.6-.17-24.47-.1-35.62,0-.35-.18-.53-.53-.53h-5.36c-2.08-.01-3.12-1.05-3.12-3.13v-9.37c0-1.38,1.12-2.5,2.5-2.5h6c.33,0,.5-.17.5-.5v-10.73c0-1.2.82-2.25,1.99-2.53l10.7-2.62c1.65-.41,3.31.6,3.72,2.25.06.24.09.49.09.74v12.89c0,.33.17.5.5.5h16.37c1.45,0,2.62,1.17,2.62,2.62v9.26c0,1.72-1.39,3.12-3.12,3.12h-15.69c-.41,0-.62.21-.63.62h0Z"/>
  <path class="cls-1" d="M488.02,111.21c-.03,9.93-.02,20.2.04,30.8.03,5.14.05,11.25,7.1,10.99,3.05-.11,6.13-.21,9.26-.3,1.48-.04,2.71,1.1,2.79,2.57l.5,9.24c.06,1.19-.73,2.26-1.89,2.54-7.35,1.83-14.15,2.2-20.39,1.13-6.25-1.07-10.33-4.6-12.12-10.6-1.09-3.65-1.65-7.31-1.7-11-.14-11.55-.16-23.37-.06-35.44,0-.37-.17-.55-.54-.56l-5.93-.09c-1.43-.02-2.57-1.19-2.57-2.62v-9.95c0-1.31,1.07-2.37,2.38-2.37h6.12c.33,0,.5-.17.5-.5v-10.75c0-1.2.82-2.25,1.99-2.53l10.62-2.58c1.69-.41,3.39.63,3.8,2.32.06.24.09.49.09.74v12.8c0,.33.17.5.5.5h16.5c1.24,0,2.25,1.01,2.25,2.25h0v10c0,1.52-1.23,2.75-2.75,2.75h-15.83c-.44,0-.66.22-.66.66h0Z"/>
  <path class="cls-1" d="M101.23,167.6c-14.39-3.1-20.14-14.28-21.52-27.83-.58-5.73-.59-11.45-.04-17.18,1.35-14.07,7.43-25.29,22.61-28.03,6.15-1.11,12.24-1.12,18.27-.03,13.88,2.5,20.66,12.4,22.48,25.6.96,6.91,1.01,13.89.14,20.92-1.92,15.7-9.65,25.73-25.89,27.29-5.81.55-11.16.31-16.05-.74h0ZM126.26,121.69c-1.7-10.95-9.69-14.62-19.98-12.27-5.18,1.19-8.13,5.26-9.12,10.22-1.11,5.55-1.33,11.97-.67,19.25.74,8.3,4.16,14.21,13.18,14.68,11.11.59,15.91-4.27,16.94-15.04.57-6,.46-11.61-.35-16.84Z"/>
  <path class="cls-1" d="M245.23,121.72c.64-5.94-1.09-11.89-8.13-11.93-7.49-.04-15.84.41-25.04,1.34-1.21.13-2.12-.27-2.75-1.19-.56-.81-.83-1.77-.81-2.87.05-2.51-.05-4.97-.3-7.37-.16-1.55.91-2.93,2.44-3.19,7.35-1.21,14.48-2.07,21.38-2.58,12.74-.94,26.02,1.02,28.97,16.05.41,2.1.75,4.27.75,6.42.03,15.01.03,30.9,0,47.67-.01,2.48-.83,4.26-3.56,3.97-3.78-.39-7.11-1.74-10-4.03-.28-.23-.59-.28-.93-.15-15.47,5.76-38.5,10.35-43.03-11.49-.92-4.45-.91-8.97.03-13.55,2.12-10.22,10.95-13.85,20.32-14.75,7.09-.67,13.72-1.21,19.88-1.61.47-.03.73-.27.78-.74h0ZM220.27,144.5c-.25,4.55,1.43,9.81,6.84,9.83,5.2.02,11.06-.88,17.57-2.7.39-.11.58-.36.58-.77v-15.02c0-.37-.18-.54-.55-.52-5.37.32-10.52.62-15.45.89-4.92.28-8.71,3.04-8.99,8.29h0Z"/>
  <path class="cls-1" d="M368.23,121.71c.51-6.25-.91-11.96-8.41-11.94-7.93.03-15.91.47-23.92,1.3-2.91.3-4.35-1.04-4.34-4.01.01-2.35-.09-4.8-.32-7.33-.14-1.6.99-3.03,2.57-3.27,5.67-.87,11.24-1.6,16.71-2.17,11.48-1.21,27.14-1.74,32.26,11.44,1.33,3.43,2,7.03,1.99,10.8-.02,15.37-.02,31.39,0,48.07.01,7.17-10.98,1.44-13.49-.56-.31-.25-.66-.3-1.03-.16-15.19,5.58-39.59,10.76-43.23-12.85-.67-4.33-.53-8.61.42-12.85,2.14-9.62,11.03-13.18,19.86-14.06,7.14-.71,13.86-1.26,20.16-1.65.41-.02.74-.35.77-.76h0ZM343.32,144.37c-.22,3.52.86,8.61,4.74,9.6,1.68.43,3.63.52,5.85.27,4.94-.55,9.56-1.4,13.86-2.55.29-.08.49-.34.49-.64v-15.22c0-.35-.17-.51-.52-.49-5.41.3-10.56.59-15.46.87-4.93.28-8.65,3.02-8.96,8.16Z"/>
  <path class="cls-1" d="M397.26,120.55c1.63-12.78,7.53-22.84,21.04-25.73,10.59-2.26,22.65-.57,33.04,1.9,1.39.33,2.02,1.4,1.9,3.19-.17,2.63-.26,5.03-.28,7.22-.03,3.11-1.67,4.39-4.93,3.84-6.32-1.08-12.32-1.8-18-2.15-3.44-.22-8.3.43-11.02,2.76-2.33,2.01-3.75,4.24-4.27,6.71-1.71,8.15-1.81,16.22-.3,24.19,1.31,6.94,5.49,10.6,12.52,10.97,7.11.37,14.48-1.16,21.59-2.11,2.81-.37,4.27.87,4.38,3.71l.3,7.84c.05,1.44-.95,2.7-2.36,2.97-11.88,2.29-24.73,4.35-35.66.85-10.15-3.24-15.67-11.62-17.46-21.72-1.39-7.88-1.56-16.03-.49-24.44h0Z"/>
  <path class="cls-1" d="M296.71,101.91c3.22-2.16,20.9-12.41,20.82-3.19-.03,3.09-.03,6.01-.02,8.76,0,1.63-.86,2.54-2.59,2.73-6.33.72-12.47,3.43-18.44,8.14-.31.25-.47.57-.47.96v44.99c0,1.52-1.23,2.75-2.75,2.75h-11.25c-1.38,0-2.5-1.12-2.5-2.5v-66.75c0-1.24,1.01-2.25,2.25-2.25h11.75c1.38,0,2.5,1.11,2.5,2.49h0v3.49c-.01.57.23.69.7.37h0Z"/>
  <path class="cls-1" d="M686.31,126.04c0,12.53-10.15,22.68-22.68,22.68h0c-12.53,0-22.68-10.15-22.68-22.68h0c0-12.53,10.15-22.68,22.68-22.68h0c12.53,0,22.68,10.15,22.68,22.68h0ZM667.41,111.17c-.19-.73-.22-1.48-.1-2.23.09-.59-.16-.89-.76-.89h-6.04c-.5,0-.75.25-.75.75v2.72c0,.32-.15.54-.44.65-5.07,2.01-8.25,5.3-9.54,9.89-3.91,13.96,12.29,24.92,23.72,15.34,3.74-3.13,5.88-8.29,5.15-13.07-.91-5.97-4.42-10.09-10.52-12.35-.36-.14-.63-.44-.72-.81h0Z"/>
  <rect class="cls-1" x="578.58" y="169.08" width="16.08" height="3.68" rx=".26" ry=".26" transform="translate(-6.1 319.31) rotate(-30.3)"/>
  <path class="cls-1" d="M745.59,172.86l3.4-6.18c.11-.19.35-.26.54-.15h0l1.9,1.08c.19.11.26.35.15.54l-5.05,9.16c-.11.19-.35.26-.54.15l-13.48-7.5c-.19-.11-.26-.35-.15-.54l1.25-2.24c.11-.19.35-.26.54-.16l10.89,6c.19.1.43.03.54-.16h0Z"/>
  <path class="cls-1" d="M595.03,183.42l6.04-5.28c.12-.1.31-.1.42.02l1.92,1.99c.12.12.12.32,0,.44h-.01s-12.01,10.3-12.01,10.3c-.13.11-.33.09-.44-.04h0l-2.01-2.47c-.06-.08-.08-.19-.05-.29l3.3-9.65c.06-.16-.02-.34-.18-.4-.1-.04-.2-.02-.29.04l-6.66,4.7c-.13.09-.32.07-.42-.06l-1.83-2.36c-.11-.13-.08-.33.05-.44,0,0,.01,0,.02,0l12.94-8.8c.14-.09.34-.05.43.09h0l1.56,2.3c.06.08.07.19.04.28l-3.3,9.3c-.06.16.03.34.19.39.1.03.21,0,.3-.05h0Z"/>
  <path class="cls-1" d="M735.38,188.42l.82,1.17c.26.38.25.75-.04,1.11l-1.35,1.71c-.33.42-.64.4-.91-.06l-8.09-13.41c-.19-.31-.17-.6.06-.87l1.7-2.07c.22-.28.5-.36.84-.25l14.84,4.83c.57.19.66.51.29.98l-1.46,1.78c-.3.37-.63.4-1,.1-.47-.39-1-.61-1.59-.65-.24-.02-.48.09-.63.28l-3.44,4.32c-.27.33-.28.68-.04,1.03h0ZM735.3,181.36l-4.26-1.46c-.53-.18-.66-.03-.38.46l2.32,3.97c.27.47.57.49.9.05l1.66-2.24c.28-.37.2-.63-.24-.78Z"/>
  <path class="cls-1" d="M606.64,188.02l-3.24-3.2c-.14-.13-.14-.34-.01-.48l1.55-1.59c.12-.13.32-.13.46-.02l9.66,8.3c.14.12.16.33.05.47l-1.41,1.76c-.11.14-.32.17-.47.06l-3.55-2.69c-.14-.11-.35-.09-.47.05l-7.95,9.46c-.12.14-.34.16-.48.04h0l-2.34-2.07c-.14-.12-.15-.34-.03-.48h0l8.24-9.14c.12-.13.12-.34-.01-.47Z"/>
  <path class="cls-1" d="M724.47,191.65l-5.33-5.81c-.19-.21-.19-.53.01-.73l1.6-1.66c.23-.24.45-.24.68,0l10.55,11.17c.3.31.28.61-.05.89l-1.98,1.65c-.27.23-.58.3-.92.19l-9.33-2.78c-.55-.17-.66-.02-.31.44l4.62,6.14c.27.37.22.88-.13,1.17l-1.54,1.29c-.37.31-.69.27-.97-.11l-9.04-12.17c-.21-.29-.17-.53.13-.72l1.8-1.15c.29-.18.59-.22.91-.13l9.04,2.73c.59.18.68.04.26-.41h0Z"/>
  <path class="cls-1" d="M617.95,200.67l3.98,2.36c.23.14.31.44.17.67,0,0-.01.02-.02.03l-1.12,1.58c-.15.21-.43.26-.65.13l-3.93-2.37c-.22-.13-.5-.08-.65.13l-1.73,2.36c-.16.21-.12.52.09.69.02,0,.03.02.05.03l6.4,3.8c.23.14.31.44.18.67,0,0-.01.02-.02.03l-1.18,1.72c-.14.22-.44.28-.66.15l-9.41-5.75c-.23-.14-.31-.44-.17-.67,0,0,.01-.02.02-.03l8.56-12.61c.14-.22.44-.28.66-.15l8.48,5.2c.23.14.31.44.17.67l-1.03,1.7c-.13.22-.42.3-.65.18l-5.85-3.11c-.22-.12-.49-.05-.63.15l-1.22,1.74c-.15.22-.09.53.13.68.01,0,.02,0,.03.02Z"/>
  <path class="cls-1" d="M714.4,204.34c0,4.44-3.6,8.04-8.04,8.04h0c-4.44,0-8.04-3.6-8.04-8.04s3.6-8.04,8.04-8.04,8.04,3.6,8.04,8.04h0ZM711.28,204.25c0-2.7-2.19-4.89-4.89-4.89h0c-2.7,0-4.89,2.19-4.89,4.89h0c0,2.7,2.19,4.89,4.89,4.89h0c2.7,0,4.89-2.19,4.89-4.89h0Z"/>
  <path class="cls-1" d="M630.03,210.83l-2.13,5.15c-.13.31-.35.41-.66.29l-2.28-.85c-.38-.15-.49-.41-.33-.78l5.84-13.64c.18-.43.49-.57.93-.4,2.35.92,4.52,1.77,6.51,2.55,1.64.64,2.48,1.86,2.52,3.67.07,2.69-1.11,4.47-3.54,5.34-.33.12-.47.35-.44.69l.55,6.14c.05.53-.18.71-.68.54l-2.36-.81c-.47-.17-.7-.5-.7-.99v-5.46c0-.53-.25-.88-.74-1.07l-1.78-.68c-.33-.13-.57-.02-.71.31h0ZM634.62,208.75c.24.08.5.04.7-.11l1.66-1.2c.34-.25.41-.73.16-1.06-.08-.1-.17-.18-.29-.24l-3.44-1.59c-.38-.18-.83-.02-1.01.36-.01.02-.02.04-.03.07l-.68,1.91c-.14.39.07.83.46.97l2.47.89h0Z"/>
  <rect class="cls-1" x="691.78" y="202.02" width="3.7" height="16.08" rx=".46" ry=".46" transform="translate(-30.55 238.53) rotate(-19.1)"/>
  <path class="cls-1" d="M681.52,208.81l2.61,12.13c.04.18-.07.36-.26.41h-.02l-2.97.46c-.18.03-.36-.1-.39-.28l-2.23-12.17c-.03-.18-.21-.31-.39-.28l-4.25.71c-.18.03-.35-.09-.39-.27l-.46-2.19c-.04-.18.07-.37.26-.41h.01l12.44-2.52c.18-.03.35.08.39.25l.59,2.17c.05.18-.06.37-.24.42h0l-4.46,1.17c-.17.05-.28.22-.24.4Z"/>
  <path class="cls-1" d="M646.79,213.2l-1.56,8.12c-.03.17-.19.28-.36.25l-3.03-.55c-.17-.03-.28-.19-.25-.36v-.02l3.58-15.27c.04-.17.21-.27.37-.23h0l2.6.66c.09.02.17.09.21.18l3.98,9.07c.07.16.26.22.41.15.1-.05.17-.14.18-.25l.82-7.85c.02-.16.15-.28.31-.28h2.65c.17,0,.31.13.31.3v.03l-1.69,15.69c-.02.17-.17.29-.34.27l-3.21-.36c-.11,0-.2-.08-.25-.18l-4.15-9.44c-.07-.16-.25-.23-.41-.16-.1.04-.16.13-.18.23h.01Z"/>
  <path class="cls-1" d="M669.38,220.28l-6.1.07c-.16,0-.29.1-.34.25l-.76,2.45c-.05.17-.22.27-.39.25l-2.64-.31c-.2-.02-.34-.2-.32-.4,0-.02,0-.05.02-.07l5.01-15.06c.05-.14.17-.24.32-.25l3.16-.2c.15,0,.3.08.36.22l6.29,15.02c.08.18,0,.39-.19.47-.04.02-.08.03-.13.03l-2.9.09c-.16,0-.31-.09-.36-.24l-.69-2.07c-.05-.15-.18-.25-.34-.25h0ZM664.18,216.98c-.05.18.06.37.24.42.04,0,.08.02.12,0l3.17-.34c.19-.02.32-.19.3-.38,0-.03-.01-.06-.02-.08l-1.76-4.52c-.07-.17-.27-.26-.44-.19-.09.04-.17.12-.2.22l-1.41,4.86h0Z"/>
  <path class="cls-1" d="M21.69,199.84c-5.13-2-9.57-2.17-13.33-.52-3.92,1.72-5.47,6.67-2.76,9.94,1.22,1.47,2.85,2.66,4.89,3.59,2.89,1.32,5.46,2.62,7.71,3.92,10.38,5.98,7.06,19.4-4.29,21.29-4.36.72-8.88.29-13.56-1.29-.13-.04-.19-.14-.17-.28l.42-3.76c0-.08.04-.1.11-.06,5.3,2.54,13.34,3.73,17.72-1.03,2.16-2.36,2.31-6.51.29-8.95-5.05-6.09-17.41-6.11-18.61-15.5-1.06-8.41,6.14-12.56,13.46-12.51,3.02.02,5.91.49,8.67,1.41.15.05.21.16.19.32l-.48,3.29c-.02.16-.11.21-.26.15h0Z"/>
  <path class="cls-1" d="M42.12,196.8c2.64-1.29,5.23-1.99,7.74-2.09,8.93-.38,15.08,3.24,18.45,10.87,2.4,5.43,2.9,11.28,1.51,17.55-1.78,7.98-6.37,12.91-13.76,14.78-4.95,1.25-11.05.38-15.44-2.35-3.77-2.35-6.36-5.85-7.78-10.5-2.92-9.54-.92-23.29,9.27-28.27h0ZM64.7,225c2.16-6.2,1.93-12.42-.68-18.65-1.9-4.53-6.39-7.67-11.37-8.07-13.62-1.11-18.12,12.36-16.11,23.36.99,5.4,4.13,10.35,9.35,12.3,8.04,3.01,15.98-.82,18.81-8.94h0Z"/>
  <path class="cls-1" d="M273.1,199.85c-4.71-1.96-11.47-2.76-15.47.96-1.15,1.07-1.78,2.46-1.9,4.17-.29,4.43,3.52,6.62,6.93,8.19,5.18,2.4,11.99,5.24,13.01,11.51,1.11,6.87-3.33,11.99-10.04,13.31-4.23.83-8.84.43-13.84-1.2-.14-.04-.2-.14-.19-.29l.42-3.78s.04-.08.09-.08h.03c5.3,2.59,13.49,3.75,17.81-1.14,2.13-2.41,2.17-6.68.02-9.03-1.43-1.57-3.24-2.83-5.44-3.8-2.88-1.27-5.51-2.64-7.89-4.12-3.36-2.09-5.09-4.9-5.21-8.45-.26-7.89,6.68-11.49,13.58-11.44,3.02.02,5.91.5,8.65,1.42.13.04.21.17.19.3l-.49,3.3c-.02.17-.12.22-.28.16h.02Z"/>
  <path class="cls-1" d="M473.41,204.42c3.97-7.95,13.48-11.21,21.76-9.19,12.41,3.03,16.11,16.77,13.58,27.98-2.42,10.71-10.91,16.52-21.64,15.01-16.48-2.31-19.87-21.42-13.69-33.81h0ZM492.11,234.78c12.05-1.71,14.56-15.22,12-25.29-1.36-5.36-5.15-9.81-10.65-10.91-9.21-1.84-16.03,3.58-17.87,12.41-1.73,8.25.21,19.71,9.37,23.01,2.39.86,4.78,1.13,7.16.79h-.01Z"/>
  <rect class="cls-1" x="284.47" y="194.82" width="4.31" height="42.92" rx=".4" ry=".4"/>
  <rect class="cls-1" x="456.88" y="194.82" width="4.31" height="42.9" rx=".45" ry=".45"/>
  <path class="cls-1" d="M110.63,220.37c.01,6.85-2,13.97-8.78,16.72-3.51,1.43-7.4,1.72-11.7.88-9.02-1.75-11.17-9.94-11.16-18.15.02-8.4.02-16.6.01-24.6,0-.13.07-.2.2-.2h3.92c.15,0,.22.07.22.22-.07,9.05-.06,18.19.05,27.42.09,8.54,5.33,13.76,14.19,12.16,7.05-1.27,8.67-7.64,8.69-13.8.03-8.61.04-17.21.02-25.79,0-.13.06-.2.19-.2h3.93c.13,0,.19.06.19.19v25.17l.03-.02Z"/>
  <path class="cls-1" d="M777.22,227.98c0,6.32-5.13,11.45-11.45,11.45s-11.45-5.13-11.45-11.45,5.13-11.45,11.45-11.45,11.45,5.13,11.45,11.45ZM774.74,228c0-4.94-4.01-8.95-8.95-8.95s-8.95,4.01-8.95,8.95h0c0,4.94,4.01,8.95,8.95,8.95h0c4.94,0,8.95-4.01,8.95-8.95Z"/>
  <path class="cls-1" d="M158.03,218.28v18.77c0,.36-.28.66-.65.66l-3,.05c-.36,0-.66-.29-.67-.65h0l.02-41.11c0-.37.3-.66.66-.66h0l3,.04c.36,0,.65.3.65.66l-.04,17.34c0,.37.3.66.66.66h20.93c.37,0,.66-.31.66-.68h0l.06-17.37c0-.36.29-.65.65-.66l2.95-.04c.36,0,.67.28.68.65h0v41.14c0,.37-.29.66-.65.66l-2.99.02c-.37,0-.66-.3-.66-.66h0v-18.84c0-.37-.3-.66-.66-.66h-20.96c-.37,0-.66.31-.66.68h.02Z"/>
  <path class="cls-1" d="M134.33,199.6v37.64c0,.26-.22.48-.48.48l-3.33.02c-.27,0-.48-.21-.49-.47h0v-37.66c0-.27-.22-.48-.49-.48h0l-11.99.03c-.27,0-.48-.22-.48-.48h0l.04-2.83c0-.26.22-.47.48-.47h29.2c.27,0,.48.23.48.5v2.82c0,.27-.22.48-.48.48h0l-11.97-.03c-.27,0-.48.22-.48.48h0v-.03Z"/>
  <path class="cls-1" d="M236.96,226.06h-21.36c-.11,0-.22.07-.26.17l-4.57,11.33c-.04.11-.14.17-.26.17h-3.91c-.15,0-.27-.12-.27-.27,0-.04,0-.07.02-.11l17.68-41.82c.04-.1.14-.17.25-.17h4.07c.11,0,.21.05.25.15l17.84,41.84c.06.14,0,.3-.14.36-.03,0-.07.02-.1.02h-4.09c-.11,0-.22-.06-.26-.17l-4.63-11.34c-.04-.11-.14-.17-.26-.17h0ZM216.94,222.33c-.05.12,0,.26.13.31.03,0,.06.02.09.02h18.12c.27,0,.35-.12.25-.37l-9.34-23.12s0,0-.02,0h0s-9.24,23.18-9.24,23.18h.01Z"/>
  <path class="cls-1" d="M326.76,226.06h-21.36c-.11,0-.22.07-.26.17l-4.58,11.33c-.04.11-.14.17-.26.17h-3.9c-.15,0-.27-.13-.27-.28,0-.04,0-.07.02-.11l17.68-41.82c.04-.1.14-.17.25-.17h4.07c.11,0,.21.06.25.17l17.84,41.83c.06.14,0,.3-.14.36-.03,0-.07.02-.1.02h-4.09c-.11,0-.22-.06-.26-.17l-4.63-11.34c-.04-.11-.14-.17-.26-.17h0ZM306.74,222.33c-.05.12.01.26.13.31.03,0,.06.02.09.02h18.12c.27,0,.35-.12.25-.37l-9.34-23.12s-.01,0-.02,0h0s-9.24,23.18-9.24,23.18h0Z"/>
  <path class="cls-1" d="M379.51,233.02c.79-2.39,1.63-4.71,2.54-6.93,3.81-9.34,7.96-19.45,12.46-30.34.11-.26.3-.4.59-.4h5.75c.48,0,.73.23.73.72v40.95c0,.4-.32.72-.72.72h-2.97c-.43,0-.64-.21-.63-.64l.05-38.12c0-.13-.02-.13-.07,0l-16.05,38.35c-.12.28-.33.42-.63.42h-2.86c-.25,0-.42-.11-.52-.34-5.42-12.75-10.68-25.57-15.79-38.45-.04-.11-.06-.11-.06,0l.03,38.67c0,.08-.04.12-.12.12l-3.89-.02c-.08,0-.12-.04-.12-.12v-41.88c0-.24.12-.36.35-.36h6.29c.28,0,.47.13.57.39,4.01,9.88,7.96,19.65,11.87,29.32,1.11,2.75,2.07,5.4,2.87,7.96.11.36.23.36.34,0h-.01Z"/>
  <path class="cls-1" d="M446.97,211.26c2.77,14.2-4.78,24.58-19.14,26.08-4.4.46-9,.57-13.79.32-.14,0-.25-.12-.25-.27v-41.47c0-.28.23-.51.51-.52,4.81-.18,9.36-.06,13.64.37,9.4.94,17.17,5.93,19.04,15.49h-.01ZM418.09,199.32l-.11,34.47c0,.17.14.31.31.32l7.26.03c9.73.04,17.65-7.05,17.68-15.83h0v-3.32c.04-8.77-7.82-15.91-17.55-15.95l-7.26-.03c-.17,0-.32.13-.32.31h-.01Z"/>
  <path class="cls-1" d="M768.33,229.24l2.63,4.01c.15.24.09.55-.15.71-.08.05-.18.08-.27.08h-1.88c-.54,0-1.02-.32-1.21-.82-.66-1.7-1.56-3.69-3.64-3.93-.27-.03-.51.16-.55.43v3.85c0,.35-.17.52-.52.5l-1.85-.08c-.26,0-.39-.15-.39-.41v-11.09c.01-.55.28-.8.83-.77l6.66.39c.98.06,1.82.72,2.11,1.66.69,2.2.16,3.77-1.57,4.7-.35.19-.41.44-.2.77h0ZM763.27,224.26l-.04,2.52c0,.14.1.25.24.26h.01l2.09.02c1.07,0,1.95-.57,1.96-1.31v-.34c.01-.74-.84-1.35-1.91-1.37h0l-2.09-.02c-.13,0-.24.11-.25.24h-.01Z"/>
</svg>